# xmcd
#
# Track frame offsets:
#	150
#	13775
#	28684
#	41394
#	54419
#	68010
#	79653
#	92942
#	106710
#	120114
#	132826
#	146073
#	159505
#	171183
#	186391
#	199700
#	212508
#
# Disc length: 3011 seconds
#
# Revision: 0
# Processed by: cddbd v1.5.2PL0 Copyright (c) Steve Scherf et al.
# Submitted via: EasyCDDAExtractor 16.0.8.1
#
DISCID=dd0bc111
DTITLE=ZE NETO and CRISTIANO - SÃO JOSE DO RIO PRETO
DYEAR=1900
DGENRE=
TTITLE0=ESTAMOS QUITES (HENRIQUE E JULIANO)
TTITLE1=TE AMO
TTITLE2=SEU POLICIA
TTITLE3=EU LIGO PRA VOCE
TTITLE4=PREVISIVEL
TTITLE5=NUNCA MAIS EU BEBO
TTITLE6=RESSACA MORAL
TTITLE7=SO POSSO ESTAR SONHANDO
TTITLE8=CONTAGEM REGRESSIVA
TTITLE9=BOBO FUI EU
TTITLE10=ABAIXA O SOM (MARILIA MENDONÇA)
TTITLE11=SE CUIDA
TTITLE12=PRA REZAR NINGUEM ME CHAMA (HUMBERTO E RONALDO)
TTITLE13=DIZ PRA ELA
TTITLE14=NEM ELA NEM EU
TTITLE15=DEIXA ACONTECER
TTITLE16=ESCRAVO DA SOFRENCIA
EXTD=
EXTT0=
EXTT1=
EXTT2=
EXTT3=
EXTT4=
EXTT5=
EXTT6=
EXTT7=
EXTT8=
EXTT9=
EXTT10=
EXTT11=
EXTT12=
EXTT13=
EXTT14=
EXTT15=
EXTT16=
PLAYORDER=
